<svg width="80" height="80" viewBox="0 0 80 80" fill="none" xmlns="http://www.w3.org/2000/svg">
<path d="M57.8001 18.2001C57.009 18.2001 56.2356 18.4347 55.5778 18.8742C54.92 19.3137 54.4073 19.9384 54.1046 20.6693C53.8018 21.4003 53.7226 22.2045 53.8769 22.9804C54.0313 23.7564 54.4122 24.4691 54.9717 25.0285C55.5311 25.5879 56.2438 25.9689 57.0197 26.1232C57.7956 26.2776 58.5999 26.1983 59.3308 25.8956C60.0617 25.5928 60.6864 25.0802 61.126 24.4224C61.5655 23.7646 61.8001 22.9912 61.8001 22.2001C61.8001 21.1392 61.3787 20.1218 60.6285 19.3717C59.8784 18.6215 58.861 18.2001 57.8001 18.2001ZM73.1334 26.2667C73.0686 23.5011 72.5506 20.7648 71.6001 18.1667C70.7525 15.9439 69.4334 13.931 67.7334 12.2667C66.0828 10.5582 64.0653 9.24734 61.8334 8.43341C59.2423 7.45395 56.5029 6.92411 53.7334 6.86675C50.2001 6.66675 49.0668 6.66675 40.0001 6.66675C30.9334 6.66675 29.8001 6.66675 26.2667 6.86675C23.4973 6.92411 20.7579 7.45395 18.1667 8.43341C15.939 9.25558 13.9232 10.5653 12.2667 12.2667C10.5582 13.9173 9.24734 15.9349 8.43341 18.1667C7.45395 20.7579 6.92411 23.4973 6.86675 26.2667C6.66675 29.8001 6.66675 30.9334 6.66675 40.0001C6.66675 49.0667 6.66675 50.2001 6.86675 53.7334C6.92411 56.5029 7.45395 59.2423 8.43341 61.8334C9.24734 64.0653 10.5582 66.0828 12.2667 67.7334C13.9232 69.4349 15.939 70.7446 18.1667 71.5667C20.7579 72.5462 23.4973 73.076 26.2667 73.1334C29.8001 73.3334 30.9334 73.3334 40.0001 73.3334C49.0668 73.3334 50.2001 73.3334 53.7334 73.1334C56.5029 73.076 59.2423 72.5462 61.8334 71.5667C64.0653 70.7528 66.0828 69.442 67.7334 67.7334C69.4409 66.0753 70.7612 64.0607 71.6001 61.8334C72.5506 59.2354 73.0686 56.4991 73.1334 53.7334C73.1334 50.2001 73.3334 49.0667 73.3334 40.0001C73.3334 30.9334 73.3334 29.8001 73.1334 26.2667ZM67.1334 53.3334C67.1091 55.4493 66.7259 57.5458 66.0001 59.5334C65.4679 60.9841 64.613 62.2948 63.5001 63.3667C62.4189 64.4684 61.1108 65.3215 59.6667 65.8667C57.6791 66.5926 55.5827 66.9758 53.4668 67.0001C50.1334 67.1667 48.9001 67.2001 40.1334 67.2001C31.3667 67.2001 30.1334 67.2001 26.8001 67.0001C24.6031 67.0412 22.4154 66.7029 20.3334 66.0001C18.9527 65.427 17.7046 64.576 16.6667 63.5001C15.5604 62.4292 14.7162 61.1174 14.2001 59.6667C13.3863 57.6506 12.9349 55.5066 12.8667 53.3334C12.8667 50.0001 12.6667 48.7667 12.6667 40.0001C12.6667 31.2334 12.6667 30.0001 12.8667 26.6667C12.8817 24.5036 13.2766 22.3599 14.0334 20.3334C14.6202 18.9265 15.521 17.6723 16.6667 16.6667C17.6795 15.5206 18.931 14.6104 20.3334 14.0001C22.3653 13.2669 24.5067 12.8837 26.6667 12.8667C30.0001 12.8667 31.2334 12.6667 40.0001 12.6667C48.7668 12.6667 50.0001 12.6667 53.3334 12.8667C55.4493 12.891 57.5458 13.2742 59.5334 14.0001C61.0482 14.5623 62.4077 15.4762 63.5001 16.6667C64.5924 17.6907 65.446 18.9425 66.0001 20.3334C66.7409 22.3632 67.1244 24.506 67.1334 26.6667C67.3001 30.0001 67.3334 31.2334 67.3334 40.0001C67.3334 48.7667 67.3001 50.0001 67.1334 53.3334ZM40.0001 22.9001C36.6194 22.9067 33.3166 23.9152 30.5089 25.7981C27.7012 27.6811 25.5147 30.3541 24.2255 33.4793C22.9364 36.6045 22.6025 40.0416 23.2661 43.3565C23.9296 46.6714 25.5609 49.7152 27.9537 52.1033C30.3465 54.4915 33.3935 56.1168 36.7096 56.7739C40.0258 57.431 43.4623 57.0904 46.585 55.7952C49.7077 54.5 52.3763 52.3082 54.2538 49.4969C56.1313 46.6855 57.1334 43.3807 57.1334 40.0001C57.1378 37.7504 56.6974 35.5221 55.8375 33.4433C54.9777 31.3644 53.7153 29.4761 52.123 27.8869C50.5307 26.2977 48.6399 25.039 46.5594 24.1832C44.4789 23.3273 42.2497 22.8913 40.0001 22.9001ZM40.0001 51.1001C37.8047 51.1001 35.6586 50.4491 33.8333 49.2294C32.0079 48.0097 30.5852 46.2761 29.745 44.2479C28.9049 42.2196 28.6851 39.9878 29.1134 37.8346C29.5417 35.6814 30.5988 33.7036 32.1512 32.1512C33.7036 30.5988 35.6814 29.5417 37.8346 29.1134C39.9878 28.6851 42.2196 28.9049 44.2479 29.745C46.2761 30.5852 48.0097 32.0079 49.2294 33.8333C50.4491 35.6586 51.1001 37.8047 51.1001 40.0001C51.1001 41.4578 50.813 42.9012 50.2551 44.2479C49.6973 45.5946 48.8797 46.8182 47.849 47.849C46.8182 48.8797 45.5946 49.6973 44.2479 50.2551C42.9012 50.813 41.4578 51.1001 40.0001 51.1001Z" fill="white"/>
</svg>
