<svg width="80" height="80" viewBox="0 0 80 80" fill="none" xmlns="http://www.w3.org/2000/svg">
<g clip-path="url(#clip0_564_35)">
<path d="M36.172 0.171944C26.1564 1.20319 17.2501 5.68757 10.4064 13.1251C0.75012 23.6094 -2.48425 38.8126 2.03137 52.5001C4.07824 58.7032 7.31262 63.8907 12.047 68.5469C18.3282 74.7188 25.9532 78.4219 35.0782 79.7188C36.9376 79.9844 43.0782 79.9688 45.0001 79.7032C54.1564 78.4376 62.047 74.5313 68.3907 68.1094C74.7032 61.7188 78.4064 54.1407 79.7189 44.9219C79.9845 43.0782 79.9845 36.9219 79.7189 35.0782C78.9689 29.8126 77.4376 25.0626 75.1095 20.8594C73.2814 17.5313 71.1564 14.6876 68.3907 11.8907C62.172 5.59382 54.4376 1.68757 45.547 0.375069C43.6251 0.0938187 38.0782 -0.0311813 36.172 0.171944ZM58.672 24.2813C59.3595 24.5782 59.6876 25.2344 59.6876 26.3282C59.6876 27.3282 53.0782 58.7032 52.7345 59.3907C52.2345 60.3594 51.1564 60.7188 50.0626 60.3126C49.6876 60.1719 46.0782 57.5626 40.797 53.6407L39.4845 52.6719L36.6564 55.3751C34.5782 57.3438 33.672 58.1251 33.297 58.2032C33.0157 58.2657 32.7501 58.2813 32.7189 58.2344C32.672 58.1876 32.7814 55.9219 32.9689 53.1719L33.297 48.2032L34.4064 47.1876C35.0001 46.6251 39.2345 42.7969 43.797 38.6719C48.3751 34.5313 52.1095 31.0626 52.1095 30.9376C52.1095 30.7657 51.9376 30.7032 51.5626 30.7188C51.1095 30.7344 48.797 32.1251 39.422 38.0157C33.0626 42.0313 27.7657 45.3126 27.672 45.3126C27.2501 45.3126 17.3907 42.1407 16.922 41.8594C15.922 41.2344 16.1407 40.3126 17.4376 39.5782C17.7814 39.3907 20.2657 38.3751 22.9689 37.3438C25.672 36.2969 30.7814 34.3282 34.297 32.9688C37.8282 31.6094 44.1095 29.1876 48.2814 27.5782C57.422 24.0469 57.3282 24.0782 57.7814 24.0626C57.9689 24.0626 58.3751 24.1563 58.672 24.2813Z" fill="white"/>
</g>
<defs>
<clipPath id="clip0_564_35">
<rect width="80" height="80" fill="white"/>
</clipPath>
</defs>
</svg>
