<svg width="80" height="55" viewBox="0 0 80 55" fill="none" xmlns="http://www.w3.org/2000/svg">
<path d="M33.5223 0.0585838C32.0052 0.190864 30.0658 0.54991 29.2994 0.833368C27.97 1.32469 26.3278 3.10103 26.625 3.70574C26.6876 3.80022 26.9847 3.9514 27.3132 4.02699C28.752 4.34824 29.9563 5.33089 30.5037 6.6159C31.4265 8.80797 31.8488 15.6865 31.3483 20.5431C31.0199 23.7556 30.8791 24.4926 30.3786 25.6642C29.0805 28.7823 26.0463 26.2312 22.7463 19.2392C21.5576 16.7259 18.2419 8.73238 17.5069 6.597C16.5997 4.00809 16.3182 3.53566 15.3016 2.91206L14.4414 2.38294L7.95079 2.43963C2.08577 2.49632 1.41325 2.53411 0.95969 2.83647C0.224608 3.3089 -0.0881925 3.9703 0.0212878 4.82067C0.177688 6.31355 3.91566 15.7621 7.05931 22.6218C10.8598 30.9177 15.8803 39.5348 19.5088 44.0323C22.6681 47.944 27.5321 51.7612 31.4578 53.4053C34.054 54.5013 35.4929 54.7659 39.6219 54.8793C43.7039 54.9926 44.8769 54.8415 45.7528 54.1234C46.4566 53.5376 46.6755 52.725 46.8163 50.2117C46.9414 47.7172 47.3481 45.5819 47.8955 44.448C48.3959 43.4465 49.4438 42.2749 49.913 42.256C51.4927 42.1615 52.3842 42.9551 55.6998 47.4527C58.8122 51.6667 59.9539 52.8951 61.6743 53.8966C62.4563 54.3312 63.3947 54.7848 63.7857 54.8982C64.7241 55.1627 77.3926 54.8604 78.2059 54.5769C79.0191 54.2746 79.895 53.2352 79.9106 52.5549C79.9575 50.7219 79.7855 49.966 78.9253 48.3408C77.5646 45.7708 75.8129 43.3709 71.8247 38.5899C67.383 33.2798 67.0858 32.7885 67.0702 31.0121C67.0702 29.5193 67.6488 28.3854 71.5432 22.1494C77.0329 13.3622 79.2225 9.11033 79.8324 6.12457C80.1922 4.36714 79.9888 3.51676 79.0661 2.93095C78.1902 2.40183 76.8765 2.34514 68.6498 2.53411L62.1905 2.68529L61.69 3.36559C61.4241 3.74353 60.8923 4.97185 60.517 6.10568C58.562 12.0016 54.7458 20.0896 52.1495 23.8312C51.1329 25.2863 49.5533 26.7792 49.0372 26.7792C48.3021 26.7792 47.6921 26.2123 47.2386 25.0784L46.8163 24.0391L46.8632 14.2315C46.8945 5.50097 46.8789 4.31045 46.6443 3.46007C46.1125 1.47587 45.44 0.890059 43.1878 0.398733C41.8584 0.115275 35.4773 -0.111491 33.5223 0.0585838Z" fill="white"/>
</svg>
